:SAMPLES-PER-SECOND 30
:FULLY-SPECIFIED
:DEGREES
100
root  34.95973902 36.53531112 -14.52878817 11.01977348 6.129770279 3.455640554
lowerback  -7.84831953 2.538520098 2.507799625
upperback  -4.157410145 2.85619998 -4.304570198
thorax  0.4365020096 1.186040044 -5.648459911
lowerneck  -15.48349953 1.21487999 2.580970049
upperneck  10.77060032 0.1296419501 5.437029839
head  5.805210114 0.5327410102 1.314499974
lclavicle  0 -4.497500157e-015 -2.743230041e-014
lhumerus  -43.77700043 26.14949989 68.30210114
lradius  -0.492534548 -6.507048965e-006 27.38740158
lwrist  4.824992743e-007 -3.790274832e-007 -30.74830055
lhand  -4.424510343e-031 -37.05260086 -10.66870022
lfingers  90 7.125020027 -90
lthumb  94.88621767 -25.49916291 101.2316364
rclavicle  0 -4.497500157e-015 -2.743230041e-014
rhumerus  43.82949448 3.393591166 -56.4292984
rradius  -5.16745672e-007 2.214343908e-008 80.01830292
rwrist  1.129822067e-006 0.001802438172 -176.4049988
rhand  -1.770450897e-031 4.258709908 -6.59758997
rfingers  -90 -7.125020027 -90
rthumb  -84.63000122 -9.331673117 -59.89870954
rfemur  -12.97241116 12.79632664 14.14302444
rtibia  -1.31787312 1.578954339 21.08998108
rfoot  -0.9780512452 -16.82364655 -41.96015549
rtoes  4.195169672 19.57270478 -102.3503164
lfemur  -10.42971516 -19.32201958 -18.72057152
ltibia  3.499691486 2.117330074 13.8908205
lfoot  0.5786576867 -28.88341713 31.27235222
ltoes  -8.496603157 -18.17273913 -115.5941945
101
root  34.94718957 36.53449712 -14.52489838 11.03479195 6.372732639 3.485034227
lowerback  -7.794799805 2.54982996 2.629649878
upperback  -4.187600136 2.862020016 -4.344930172
thorax  0.3839020133 1.184759974 -5.762639999
lowerneck  -15.4616003 1.152169943 2.559710026
upperneck  10.74849987 0.04805649817 5.460669994
head  5.795939922 0.4927590191 1.317350149
lclavicle  0 -4.497500157e-015 -2.743230041e-014
lhumerus  -43.8791008 26.3593998 68.10749817
lradius  -0.4926131368 -6.507048965e-006 27.34289932
lwrist  4.824992743e-007 -3.790274832e-007 -30.93260002
lhand  -0 -37.03239822 -10.66709995
lfingers  90 7.125020027 -90
lthumb  94.87641191 -25.49836945 101.2098786
rclavicle  0 -4.497500157e-015 -2.743230041e-014
rhumerus  44.98110199 3.231009483 -56.13499832
rradius  -5.16745672e-007 2.214343908e-008 79.2071991
rwrist  1.129822067e-006 0.001802438172 -176.1159973
rhand  -1.770610053e-031 4.327320099 -6.290150166
rfingers  -90 -7.125020027 -90
rthumb  -84.45665499 -9.60138075 -59.80588321
rfemur  -12.97506714 12.58855629 14.20606899
rtibia  -1.360303998 1.56766355 21.15740776
rfoot  -1.025259495 -16.86348152 -41.99730682
rtoes  4.193254943 19.5730997 -102.3446009
lfemur  -10.45066738 -19.56557846 -18.69642639
ltibia  3.53497839 2.090418339 13.86431122
lfoot  0.5718196034 -28.78669548 31.23664093
ltoes  -8.447187085 -18.19514739 -115.4358446
102
root  34.93829862 36.53407059 -14.52718269 11.0404377 6.576787472 3.496222258
lowerback  -7.792250633 2.581850052 2.678309917
upperback  -4.210639954 2.900320053 -4.356550217
thorax  0.3660140038 1.201990008 -5.799839973
lowerneck  -15.45230007 1.074810028 2.459069967
upperneck  10.75230026 -0.0403489992 5.508850098
head  5.79693985 0.4494149983 1.340540051
lclavicle  0 -4.497500157e-015 -2.743230041e-014
lhumerus  -43.92269897 26.42889977 68.07810211
lradius  -0.4926891625 -6.507048965e-006 27.27030182
lwrist  4.824992743e-007 -3.790274832e-007 -31.04300117
lhand  -4.421191834e-031 -36.99560165 -10.65089989
lfingers  90 7.125020027 -90
lthumb  94.8556777 -25.48372326 101.1690269
rclavicle  0 -4.497500157e-015 -2.743230041e-014
rhumerus  46.08930206 3.04797864 -55.74259949
rradius  -5.16745672e-007 2.214343908e-008 78.4240036
rwrist  1.129822067e-006 0.001802438172 -175.9109955
rhand  -0 4.159510136 -6.280340195
rfingers  -90 -7.125020027 -90
rthumb  -84.4931427 -9.600629119 -59.96919122
rfemur  -12.99157715 12.44488239 14.2775383
rtibia  -1.405219913 1.592085242 21.22685242
rfoot  -1.061280966 -16.82610512 -42.04265976
rtoes  4.165945556 19.57871174 -102.2630938
lfemur  -10.51334095 -19.68880653 -18.63750458
ltibia  3.531592369 2.115323782 13.90612888
lfoot  0.5918238759 -28.84325981 31.19736862
ltoes  -8.460709945 -18.18903141 -115.4791589
103
root  34.93601581 36.53334971 -14.53358958 11.06975365 6.764764309 3.514904261
lowerback  -7.816910267 2.624959946 2.688640356
upperback  -4.245029926 2.955149889 -4.328760147
thorax  0.3496859968 1.228180051 -5.771230221
lowerneck  -15.3118 0.9836480021 2.290489912
upperneck  10.70849991 -0.1188179255 5.53993988
head  5.760509968 0.4045319855 1.368849993
lclavicle  0 -4.497500157e-015 -2.743230041e-014
lhumerus  -44.23059845 26.57959938 68.02110291
lradius  -0.492762804 -6.507048965e-006 27.37609863
lwrist  4.824992743e-007 -3.790274832e-007 -31.33029938
lhand  -4.422221343e-031 -37.01330185 -10.68669987
lfingers  90 7.125020027 -90
lthumb  94.87164137 -25.51828474 101.1911885
rclavicle  0 -4.497500157e-015 -2.743230041e-014
rhumerus  47.0591011 2.904870272 -55.03379822
rradius  -5.16745672e-007 2.214343908e-008 77.78079987
rwrist  1.129822067e-006 0.001802438172 -175.9810028
rhand  -0 4.011980057 -6.147079945
rfingers  -90 -7.125020027 -90
rthumb  -84.46208221 -9.708098384 -60.10224362
rfemur  -13.03368473 12.38114643 14.30764484
rtibia  -1.451036692 1.623372793 21.29082298
rfoot  -1.108083725 -16.739851 -42.1573143
rtoes  4.170663246 19.57774502 -102.2771725
lfemur  -10.6421051 -19.80473137 -18.58257484
ltibia  3.494226456 2.129218578 14.01746082
lfoot  0.6067885756 -28.91218185 31.13538933
ltoes  -8.470198361 -18.18473285 -115.509559
104
root  34.93573046 36.53183885 -14.53941826 11.09708214 6.952761173 3.546674252
lowerback  -7.797050476 2.666810036 2.705250502
upperback  -4.276529789 3.008100033 -4.336629868
thorax  0.3136120141 1.252410054 -5.785570145
lowerneck  -15.27869987 0.9021220207 2.242449999
upperneck  10.71860027 -0.2181008905 5.549129963
head  5.759970188 0.3548400104 1.370100021
lclavicle  0 -4.497500157e-015 -2.743230041e-014
lhumerus  -44.35169983 26.49449921 68.02580261
lradius  -0.4928343892 -6.507048965e-006 27.43979836
lwrist  4.824992743e-007 -3.790274832e-007 -31.33480072
lhand  -4.415797261e-031 -36.90259933 -10.62209988
lfingers  90 7.125020027 -90
lthumb  94.80606035 -25.4588941 101.0670124
rclavicle  0 -4.497500157e-015 -2.743230041e-014
rhumerus  48.18650055 2.724440336 -54.74700165
rradius  -5.16745672e-007 2.214343908e-008 76.84390259
rwrist  1.129822067e-006 0.001802438172 -175.677002
rhand  -1.769975617e-031 4.046840191 -6.070370197
rfingers  -90 -7.125020027 -90
rthumb  -84.41459134 -9.77646336 -60.06154169
rfemur  -13.07995892 12.34400463 14.32170868
rtibia  -1.502633572 1.661864638 21.37460518
rfoot  -1.159342289 -16.62976074 -42.27716827
rtoes  4.200275841 19.57165068 -102.365559
lfemur  -10.74689007 -19.94618225 -18.55728722
ltibia  3.47163558 2.109712362 14.09891319
lfoot  0.6082773805 -28.89336586 31.0765419
ltoes  -8.449040587 -18.19430982 -115.4417806
105
root  34.93445089 36.53009069 -14.54498261 11.11715889 7.149333477 3.576720238
lowerback  -7.790219784 2.717619896 2.753569841
upperback  -4.29516983 3.071120024 -4.378970146
thorax  0.3026829958 1.281630039 -5.85284996
lowerneck  -15.28050041 0.8174880147 2.244649887
upperneck  10.72000027 -0.3372520208 5.570549965
head  5.763199806 0.2980090082 1.365399957
lclavicle  0 -4.497500157e-015 -2.743230041e-014
lhumerus  -44.27719879 26.3810997 68.0318985
lradius  -0.4929041266 -6.507048965e-006 27.33990097
lwrist  4.824992743e-007 -3.790274832e-007 -31.25580025
lhand  -0 -36.6908989 -10.49639988
lfingers  90 7.125020027 -90
lthumb  94.68093663 -25.34284977 100.8294681
rclavicle  0 -4.497500157e-015 -2.743230041e-014
rhumerus  49.0351944 2.491850853 -54.11940002
rradius  -5.16745672e-007 2.214343908e-008 76.23090363
rwrist  1.129822067e-006 0.001802438172 -175.7160034
rhand  -1.769624403e-031 3.882790089 -6.325839996
rfingers  -90 -7.125020027 -90
rthumb  -84.58394934 -9.546101651 -60.24363155
rfemur  -13.10122395 12.2460022 14.34301853
rtibia  -1.548338413 1.682902098 21.43405724
rfoot  -1.202215195 -16.55500221 -42.36915207
rtoes  4.170628066 19.57775223 -102.2770676
lfemur  -10.83085346 -20.10349464 -18.53753281
ltibia  3.45557785 2.113014936 14.16485977
lfoot  0.6161036491 -28.92789078 31.02910995
ltoes  -8.445724181 -18.19580829 -115.4311598
106
root  34.93306318 36.52810525 -14.55125884 11.13287354 7.364808559 3.630129099
lowerback  -7.819289684 2.76609993 2.822930098
upperback  -4.294040203 3.131180048 -4.423709869
thorax  0.3330860138 1.310979962 -5.93324995
lowerneck  -15.3178997 0.7313770056 2.295120001
upperneck  10.71080017 -0.4631748796 5.549920082
head  5.768929958 0.2371450067 1.339100003
lclavicle  0 -4.497500157e-015 -2.743230041e-014
lhumerus  -44.25360107 26.36160088 67.96890259
lradius  -0.4929723144 -6.507048965e-006 27.31209755
lwrist  4.824992743e-007 -3.790274832e-007 -31.34449959
lhand  -0 -36.67699814 -10.53429985
lfingers  90 7.125020027 -90
lthumb  94.68231268 -25.38048483 100.8179438
rclavicle  0 -4.497500157e-015 -2.743230041e-014
rhumerus  50.04880142 2.254620314 -53.79040146
rradius  -5.16745672e-007 2.214343908e-008 75.35420227
rwrist  1.129822067e-006 0.001802438172 -175.6329956
rhand  -1.770470015e-031 4.267010212 -6.295259953
rfingers  -90 -7.125020027 -90
rthumb  -84.47419737 -9.593621477 -59.86533703
rfemur  -13.14547729 12.17551899 14.3516264
rtibia  -1.614053369 1.711340547 21.55847168
rfoot  -1.279709697 -16.46897888 -42.49814224
rtoes  4.166442168 19.57861003 -102.2645758
lfemur  -10.82155514 -20.18784714 -18.57593918
ltibia  3.510967016 2.135078192 14.09289837
lfoot  0.6263199449 -28.93957901 30.95499992
ltoes  -8.424160971 -18.20553351 -115.3621235
107
root  34.93008351 36.52625497 -14.55784295 11.15905094 7.596699715 3.695662022
lowerback  -7.848370552 2.779809952 2.845390797
upperback  -4.289390087 3.149149895 -4.425570011
thorax  0.3574140072 1.320909977 -5.94520998
lowerneck  -15.3696003 0.6732379794 2.309400082
upperneck  10.73579979 -0.5463250875 5.536180019
head  5.786960125 0.1976599693 1.325150013
lclavicle  0 -4.497500157e-015 -2.743230041e-014
lhumerus  -44.3268013 26.45739937 67.88289642
lradius  -0.4930391312 -6.507048965e-006 27.36809731
lwrist  4.824992743e-007 -3.790274832e-007 -31.4272995
lhand  -0 -36.73279953 -10.58670044
lfingers  90 7.125020027 -90
lthumb  94.7192391 -25.42999215 100.8822563
rclavicle  0 -4.497500157e-015 -2.743230041e-014
rhumerus  51.03979874 2.11476016 -53.71229935
rradius  -5.16745672e-007 2.214343908e-008 74.479599
rwrist  1.129822067e-006 0.001802438172 -175.1900024
rhand  -1.770835311e-031 4.422589779 -6.354859829
rfingers  -90 -7.125020027 -90
rthumb  -84.46611002 -9.550791987 -59.71824268
rfemur  -13.21922302 12.17177582 14.36171532
rtibia  -1.694365025 1.77482903 21.72979546
rfoot  -1.36187613 -16.31143379 -42.64215088
rtoes  4.173394412 19.57718483 -102.2853233
lfemur  -10.81278419 -20.36649132 -18.62656784
ltibia  3.573221922 2.136315346 14.00603962
lfoot  0.6290665865 -28.89644432 30.91017151
ltoes  -8.468183634 -18.18564609 -115.5031034
